<svg xmlns="http://www.w3.org/2000/svg" width="64" viewBox="0 0 64 64">
	<path fill="#000" d="M39.96 63A32.01 32.01 0 0032 0a32 32 0 00-7.95 63c2.54.65 13.36.65 15.9 0z"/>
	<path fill="#F0F0F0" d="M24.07 63.03v-2.2l-.04-5.45c-8.9 1.93-10.78-4.29-10.78-4.29-1.46-3.7-3.56-4.68-3.56-4.68-2.9-1.99.22-1.95.22-1.95 3.21.23 4.9 3.3 4.9 3.3 2.86 4.9 7.5 3.48 9.32 2.66.29-2.07 1.12-3.48 2.03-4.28-7.1-.8-14.58-3.55-14.58-15.81 0-3.5 1.25-6.35 3.3-8.59-.33-.8-1.43-4.06.31-8.47 0 0 2.69-.86 8.8 3.28A30.65 30.65 0 0132 15.47c2.72.02 5.46.37 8.01 1.08 6.11-4.14 8.8-3.28 8.8-3.28 1.74 4.4.64 7.66.31 8.47a12.35 12.35 0 013.3 8.59c0 12.3-7.5 15-14.62 15.79 1.15.99 2.17 2.94 2.17 5.92 0 4.28-.04 7.73-.04 8.78v2.2a33.27 33.27 0 01-15.86 0z"/>
</svg>