<svg xmlns="http://www.w3.org/2000/svg" viewBox="0 0 512 492">
	<path fill="#000" fill-rule="nonzero" d="M256 .66666667C114.56.66666667 0 113.306667 0 252.229333c0 111.168 73.344 205.44 175.04 238.677334 12.8 2.368 17.493333-5.418667 17.493333-12.096 0-5.973334-.213333-21.802667-.32-42.773334C121.002667 451.205333 105.984 402.288 105.984 402.288c-11.648-29.034667-28.48-36.8-28.48-36.8-23.1893333-15.594667 1.792-15.274667 1.792-15.274667 25.706667 1.749334 39.210667 25.92 39.210667 25.92 22.826666 38.464 59.925333 27.349334 74.56 20.928 2.304-16.277333 8.896-27.349333 16.213333-33.642666-56.853333-6.293334-116.608-27.925334-116.608-124.309334 0-27.456 9.92-49.898666 26.346667-67.498666-2.88-6.357334-11.52-31.936 2.24-66.581334 0 0 21.44-6.741333 70.4 25.792 20.48-5.589333 42.24-8.362666 64-8.490666 21.76.128 43.52 2.901333 64 8.490666 48.64-32.533333 70.08-25.792 70.08-25.792 13.76 34.645334 5.12 60.224 2.56 66.581334 16.32 17.6 26.24 40.042666 26.24 67.498666 0 96.64-59.84 117.909334-116.8 124.096 8.96 7.552 17.28 22.976 17.28 46.549334 0 33.664-.32 60.714666-.32 68.885333 0 6.592 4.48 14.464 17.6 11.946667C438.72 457.562667 512 363.226667 512 252.229333 512 113.306667 397.376.66666667 256 .66666667z"/>
</svg>
