<svg xmlns="http://www.w3.org/2000/svg" viewBox="0 0 120 120">
  <g fill="none" fill-rule="evenodd">
    <ellipse cx="59.5041322" cy="66.2370967" fill="#F0F0F0" rx="54.5454545" ry="53.2258065"/>
    <path fill="#000" d="M59.7292327.43064516C26.8700433.43064516.2246076 27.0845505.2246076 59.9651931c0 26.3039225 17.0498866 48.6200119 40.6928946 56.4921619 2.9738509.551099 4.0656436-1.291486 4.0656436-2.863944 0-1.419649-.0551812-6.10942-.0808007-11.084105-16.5542439 3.601372-20.0473874-7.0243034-20.0473874-7.0243034-2.7068152-6.8813535-6.6069164-8.711123-6.6069164-8.711123-5.3988515-3.6950302.4069577-3.6191184.4069577-3.6191184 5.9752939.4199794 9.1215858 6.1350515 9.1215858 6.1350515 5.3072122 9.101526 13.9203461 6.4702463 17.3159365 4.9490538.5340714-3.8478401 2.0761785-6.4741903 3.7779154-7.960878-13.2167901-1.5054192-27.1105309-6.6102395-27.1105309-29.4222205 0-6.4998224 2.3244912-11.8106889 6.1309825-15.9799213-.6178285-1.4995041-2.6545914-7.5547003.5764423-15.7551436 0 0 4.9968198-1.6000625 16.3680089 6.102518 4.7465355-1.3190904 9.8369653-1.9806073 14.8938932-2.0032823 5.056927.022675 10.1512989.6841919 14.9067025 2.0032823 11.3573941-7.7025805 16.3473164-6.102518 16.3473164-6.102518 3.238917 8.2004433 1.2011682 14.2556395.5833398 15.7551436 3.8153593 4.1692324 6.124085 9.4800989 6.124085 15.9799213 0 22.8662036-13.9203461 27.9010274-27.170639 29.3748988 2.134315 1.8475151 4.0360829 5.4705771 4.0360829 11.0249532 0 7.965806-.0689762 14.376901-.0689762 16.337791 0 1.584288 1.0710992 3.440676 4.087322 2.856057 23.6301979-7.881022 40.6584059-30.1892251 40.6584059-56.4842749 0-32.8806426-26.6414945-59.53454794-59.5036393-59.53454794"/>
  </g>
</svg>
