<svg xmlns="http://www.w3.org/2000/svg" viewBox="0 0 121 121">
	<path fill="#000" fill-rule="evenodd" d="M60.221497.445C27.088481.445.221 27.9873689.221 61.9640329c0 27.1807199 17.191969 50.2406791 41.032002 58.3752341 2.998633.569469 4.099524-1.334536 4.099524-2.959409 0-1.466971-.055641-6.313067-.081474-11.453575-16.692196 3.721418-20.214449-7.258447-20.214449-7.258447-2.729372-7.1107319-6.661974-9.0014937-6.661974-9.0014937-5.443842-3.8181979.410349-3.7397557.410349-3.7397557 6.025088.4339787 9.197599 6.3395532 9.197599 6.3395532 5.351439 9.4049102 14.036349 6.6859212 17.460236 5.1140222.538522-3.9761014 2.09348-6.6899966 3.809398-8.2262406-13.32693-1.5555998-27.336452-6.8305808-27.336452-30.4029611 0-6.7164832 2.343862-12.2043786 6.182074-16.5125854-.622977-1.5494875-2.676713-7.8065236.581246-16.280315 0 0 5.03846-1.6533979 16.504409 6.3059352 4.78609-1.36306 9.91894-2.0466275 15.018009-2.0700583 5.099068.0234308 10.235893.7069983 15.030925 2.0700583 11.452039-7.9593331 16.483544-6.3059352 16.483544-6.3059352 3.265908 8.4737914 1.211178 14.7308275.588201 16.280315 3.847154 4.3082068 6.175119 9.7961022 6.175119 16.5125854 0 23.6284104-14.036349 28.8310616-27.397061 30.3540621 2.152101 1.9090989 4.069717 5.6529296 4.069717 11.3924516 0 8.231333-.069551 14.856131-.069551 16.882384 0 1.637098 1.080025 3.555365 4.121383 2.951259C103.05089 112.187394 120.221 89.1355843 120.221 61.9640329 120.221 27.9873689 93.357493.445 60.221497.445"/>
</svg>