<svg xmlns="http://www.w3.org/2000/svg" viewBox="0 0 512 416.2">
  <path fill="#111" d="M0 214.4c0 23.2 2.2 44.2 6.5 63 4.3 18.8 10.3 35.1 18 48.9 7.7 13.9 17.4 26 29.3 36.6 11.9 10.5 24.7 19.1 38.6 25.8 13.9 6.7 29.7 12.1 47.4 16.3 17.8 4.2 35.9 7.1 54.5 8.8 18.5 1.7 38.9 2.5 61.1 2.5 22.4 0 42.8-.8 61.3-2.5s36.7-4.6 54.6-8.8c17.9-4.2 33.8-9.6 47.7-16.3 13.9-6.7 26.9-15.3 38.8-25.8 11.9-10.5 21.8-22.7 29.5-36.6 7.8-13.9 13.8-30.2 18.1-48.9 4.3-18.8 6.5-39.8 6.5-63 0-41.4-13.9-77.2-41.6-107.4 1.5-4 2.9-8.6 4.1-13.6 1.3-5.1 2.4-12.4 3.5-21.8s.7-20.3-1.3-32.7c-1.9-12.4-5.5-25-10.6-37.8l-3.8-.8c-2.7-.5-7.1-.4-13.1.4s-13 2.2-21.1 4.5c-8.1 2.3-18.5 6.6-31.3 13s-26.2 14.5-40.4 24.2c-24.4-6.7-57.8-10-100.4-10-42.4 0-75.8 3.3-100.1 10-14.3-9.7-27.8-17.8-40.8-24.2S91.8 7.4 84.1 5.2C76.4 2.9 69.2 1.5 62.6.8 55.9.1 51.7-.1 50 .2c-1.8.2-3.1.5-4.1.9-5.2 12.9-8.7 25.5-10.6 37.8C33.4 51.3 33 62.1 34 71.6c1.1 9.4 2.3 16.7 3.5 21.8 1.3 5.1 2.6 9.6 4.1 13.6C13.9 137.2 0 173 0 214.4zm62.8 62.8c0-24 10.9-46.1 32.8-66.1 6.5-6 14.1-10.6 22.8-13.6 8.7-3.1 18.5-4.8 29.4-5.3 10.9-.4 21.4-.3 31.4.3s22.4 1.4 37.1 2.4c14.7 1 27.4 1.5 38.1 1.5 10.7 0 23.4-.5 38.1-1.5 14.7-1 27-1.8 37.1-2.4 10-.6 20.5-.7 31.4-.3 10.9.4 20.7 2.2 29.4 5.3 8.7 3.1 16.3 7.6 22.8 13.6 21.9 19.7 32.8 41.7 32.8 66.1 0 14.4-1.8 27.1-5.4 38.2-3.6 11.1-8.2 20.4-13.8 27.9-5.6 7.5-13.4 13.9-23.3 19.2-9.9 5.3-19.6 9.3-29 12.1-9.4 2.8-21.5 5-36.3 6.6-14.8 1.6-28 2.5-39.6 2.9-11.6.3-26.3.5-44.2.5s-32.6-.2-44.2-.5c-11.6-.3-24.8-1.3-39.6-2.9s-26.9-3.8-36.3-6.6c-9.4-2.8-19.1-6.9-29-12.1S87.6 350.8 82 343.3c-5.6-7.5-10.2-16.8-13.8-27.9-3.6-11.1-5.4-23.8-5.4-38.2zm257.2-5c0 26.5 14.3 48 32 48s32-21.5 32-48-14.3-48-32-48-32 21.5-32 48zm-192 0c0 26.5 14.3 48 32 48s32-21.5 32-48-14.3-48-32-48-32 21.5-32 48z"/>
</svg>
