<svg xmlns="http://www.w3.org/2000/svg" viewBox="0 0 472 512">
  <g fill="none" fill-rule="nonzero">
    <path fill="#E5E5E5" d="M373.701 261.2L357.2 336.498H85.4L74.3 298.7 161 162.499V90c-24.901 0-45-20.101-45-45 0-24.901 20.099-45 45-45h150c24.901 0 45 20.099 45 45 0 24.899-20.099 45-45 45v72.499l62.701 98.701z"/>
    <path fill="#C8C6CD" d="M373.701 261.2L357.2 336.498H236V0h75c24.901 0 45 20.099 45 45 0 24.899-20.099 45-45 45v72.499l62.701 98.701z"/>
    <path fill="#D7326B" d="M460.099 396.799l-58.799-92.1v-.3L373.701 261.2C333.2 232.7 280.7 227.899 236 250.399c-5.099 2.401-10.201 5.101-15 8.401l-46.8 31.199c-25.499 17.1-57.001 22.2-86.4 13.801-4.799-1.201-9.3-3.001-13.5-5.099l-16.5 25.8L11.901 396.8C-19.601 446.899 16.099 512 75.2 512h321.6c59.101 0 94.801-65.101 63.299-115.201z"/>
    <path fill="#BB1059" d="M396.8 512H236V250.399c44.7-22.5 97.2-17.699 137.701 10.801l27.599 43.198v.3l58.799 92.1C491.601 446.899 455.901 512 396.8 512z"/>
  </g>
</svg>
