<?xml version="1.0" encoding="UTF-8"?>
<svg width="472px" height="512px" viewBox="0 0 472 512" version="1.1" xmlns="http://www.w3.org/2000/svg" xmlns:xlink="http://www.w3.org/1999/xlink">
    <title>favicon</title>
    <g id="Page-1" stroke="none" stroke-width="1" fill="none" fill-rule="evenodd">
        <g id="favicon" fill-rule="nonzero">
            <path d="M373.701,261.2 L357.2,336.498 L85.4,336.498 L74.3,298.7 L161,162.499 L161,90 C136.099,90 116,69.899 116,45 C116,20.099 136.099,0 161,0 L311,0 C335.901,0 356,20.099 356,45 C356,69.899 335.901,90 311,90 L311,162.499 L373.701,261.2 Z" id="Path" fill="#E5E5E5"></path>
            <path d="M373.701,261.2 L357.2,336.498 L236,336.498 L236,0 L311,0 C335.901,0 356,20.099 356,45 C356,69.899 335.901,90 311,90 L311,162.499 L373.701,261.2 Z" id="Path" fill="#C8C6CD"></path>
            <path d="M460.099,396.799 L401.3,304.699 L401.3,304.399 L373.701,261.2 C333.2,232.7 280.7,227.899 236,250.399 C230.901,252.8 225.799,255.5 221,258.8 L174.2,289.999 C148.701,307.099 117.199,312.199 87.8,303.8 C83.001,302.599 78.5,300.799 74.3,298.701 L57.8,324.501 L11.901,396.8 C-19.601,446.899 16.099,512 75.2,512 L396.8,512 C455.901,512 491.601,446.899 460.099,396.799 Z" id="Path" fill="#A042FF"></path>
            <path d="M396.8,512 L236,512 L236,250.399 C280.7,227.899 333.2,232.7 373.701,261.2 L401.3,304.398 L401.3,304.698 L460.099,396.798 C491.601,446.899 455.901,512 396.8,512 Z" id="Path" fill="#7D34C7"></path>
        </g>
    </g>
</svg>